<?xml version="1.0" encoding="utf-8"?>
<!-- Generator: Adobe Illustrator 16.0.0, SVG Export Plug-In . SVG Version: 6.00 Build 0)  -->
<!DOCTYPE svg PUBLIC "-//W3C//DTD SVG 1.1//EN" "http://www.w3.org/Graphics/SVG/1.1/DTD/svg11.dtd">
<svg version="1.1" id="Layer_1" xmlns="http://www.w3.org/2000/svg" xmlns:xlink="http://www.w3.org/1999/xlink" x="0px" y="0px"
	 viewBox="0 0 610.417 413.542" enable-background="new 0 0 610.417 413.542"
	 xml:space="preserve">
<path d="M568.207,207.57h-56.9c0.051-1.63,0.07-3.27,0.07-4.92c0-4.41-0.18-8.78-0.5-13.11h37.66c21.149,0,21.149-32.79,0-32.79
	h-43.32c-1.83-6.71-4.08-13.27-6.68-19.67h25.96c13.979,0,18.71-14.33,14.2-24.05h45.91c21.14,0,21.14-32.78,0-32.78h-122.65
	c-4.66-4.98-9.61-9.72-14.82-14.21h25.99c16.31,0,20.03-19.49,11.18-28.42h28.17c21.141,0,21.141-32.78,0-32.78H89.526
	c-21.15,0-21.15,32.78,0,32.78h27.07c-8.85,8.93-5.13,28.42,11.18,28.42h43.47c-10.31,8.9-19.61,18.8-27.73,29.51h-99.89
	c-21.15,0-21.15,32.78,0,32.78h80.02c-4.28,9.12-7.78,18.62-10.47,28.42h-64.09c-21.14,0-21.14,32.79,0,32.79h58.43
	c-0.33,4.33-0.51,8.7-0.51,13.11c0,1.65,0.03,3.29,0.07,4.92h-63.45c-20.56,0-37.71,17.15-37.71,37.7
	c0,20.561,17.15,37.711,37.71,37.711h82.97c9.63,18.68,22.52,35.64,37.99,50.27h-46.65c-20.55,0-37.7,17.15-37.7,37.71
	c0,20.55,17.15,37.7,37.7,37.7h383.61c20.55,0,37.7-17.15,37.7-37.7c0-20.56-17.15-37.71-37.7-37.71h-47.74
	c15.46-14.63,28.351-31.59,37.99-50.27h76.41c20.56,0,37.71-17.15,37.71-37.711C605.917,224.72,588.766,207.57,568.207,207.57z
	 M98.917,259h-59c-9.27,0-17-7.73-17-17s7.73-17,17-17h59c9.27,0,17,7.73,17,17S108.187,259,98.917,259z M160.917,54
	c-9.27,0-17-7.73-17-17s7.73-17,17-17h131c9.27,0,17,7.73,17,17s-7.73,17-17,17H160.917z M498.917,352c9.27,0,17,7.73,17,17
	s-7.73,17-17,17h-277c-9.27,0-17-7.73-17-17s7.73-17,17-17H498.917z M572.917,258h-54c-9.27,0-17-7.73-17-17s7.73-17,17-17h54
	c9.27,0,17,7.73,17,17S582.186,258,572.917,258z"/>
<g>
	<g>
		<path fill="#0056B9" d="M166.837,91.595c0,0-0.211,0.255-0.62,0.749c-0.211,0.246-0.455,0.555-0.723,0.924
			c-0.281,0.362-0.592,0.796-0.924,1.307c-1.328,2-3.117,5.207-3.628,9.651c-0.252,2.208-0.129,4.695,0.486,7.302
			c0.619,2.606,1.726,5.328,3.312,8.014c3.16,5.379,8.232,10.583,14.397,15.299c6.192,4.719,13.587,8.943,21.779,12.556
			c8.213,3.612,17.154,6.625,26.717,8.857c9.562,2.29,19.597,4.281,29.806,6.243c10.21,1.99,20.623,3.933,31.036,6.025
			c10.411,2.104,20.831,4.313,31.066,6.792c10.229,2.49,20.286,5.277,29.797,8.832c4.769,1.74,9.369,3.732,13.821,5.827
			c4.421,2.162,8.688,4.448,12.696,6.951c8.032,4.971,15.083,10.726,20.699,16.905c5.703,6.111,9.742,12.762,12.549,18.881
			c2.69,6.204,4.174,11.884,4.89,16.593c0.75,4.709,0.774,8.435,0.819,10.946c-0.085,2.513-0.131,3.854-0.131,3.854
			c-0.009,0.276-0.241,0.493-0.518,0.484c-0.241-0.009-0.437-0.186-0.477-0.414l-0.004-0.023c0,0-0.229-1.299-0.659-3.735
			c-0.517-2.413-1.231-5.948-2.62-10.261c-1.409-4.299-3.494-9.369-6.657-14.671c-1.611-2.633-3.447-5.344-5.617-8.014
			c-2.17-2.669-4.648-5.307-7.404-7.88c-5.538-5.125-12.277-9.88-19.905-14.158c-3.818-2.131-7.839-4.184-12.063-6.082
			c-4.193-1.965-8.596-3.752-13.1-5.546c-9.037-3.513-18.593-6.81-28.478-9.757c-9.883-2.958-20.087-5.547-30.358-7.958
			c-10.269-2.423-20.599-4.71-30.773-7.048c-10.171-2.371-20.171-4.793-29.813-7.519c-4.789-1.336-9.589-2.837-14.106-4.559
			c-4.536-1.725-8.899-3.6-13.043-5.644c-8.291-4.071-15.753-8.746-21.989-13.917c-6.213-5.177-11.274-10.795-14.446-16.688
			c-1.577-2.934-2.668-5.908-3.2-8.766c-0.538-2.855-0.546-5.569-0.163-7.946c0.78-4.789,2.843-8.08,4.318-10.1
			c0.369-0.514,0.717-0.955,1.033-1.326c0.307-0.382,0.57-0.687,0.788-0.917c0.431-0.475,0.653-0.72,0.653-0.72
			c0.186-0.205,0.502-0.22,0.707-0.034C166.987,91.086,167.006,91.39,166.837,91.595z"/>
	</g>
	<g>
		<path fill="#2365A2" d="M161.956,99.562c0,0-0.171,0.27-0.502,0.792c-0.341,0.524-0.801,1.294-1.375,2.322
			c-1.11,2.067-2.726,5.188-3.623,9.44c-0.456,2.117-0.684,4.508-0.533,7.083c0.176,2.571,0.753,5.32,1.875,8.078
			c2.228,5.536,6.54,10.985,12.17,15.875c5.628,4.917,12.51,9.377,20.117,13.487c7.61,4.121,15.955,7.919,24.761,11.446
			c17.633,7.024,36.995,13.221,56.59,18.677c9.805,2.715,19.682,5.197,29.43,7.668c4.868,1.262,9.702,2.523,14.481,3.895
			c2.396,0.666,4.768,1.396,7.144,2.159l1.783,0.584l1.78,0.611c1.151,0.406,2.25,0.766,3.425,1.228
			c9.244,3.442,17.961,7.463,25.704,12.489c7.742,4.977,14.345,11.021,19.265,17.479c4.913,6.484,8.085,13.271,10.075,19.406
			c2.016,6.147,2.887,11.675,3.413,16.188c0.278,2.26,0.349,4.29,0.474,6.042c0.054,1.76,0.106,3.251,0.099,4.461
			c-0.038,2.415-0.058,3.703-0.058,3.703l-0.998,0.061c0,0-0.215-1.258-0.617-3.615c-0.224-1.17-0.501-2.612-0.826-4.308
			c-0.386-1.681-0.781-3.616-1.363-5.742c-1.095-4.262-2.69-9.359-5.165-14.83c-2.555-5.423-5.929-11.274-10.831-16.591
			c-2.42-2.675-5.144-5.268-8.211-7.667c-3.062-2.404-6.446-4.623-10.065-6.706c-7.249-4.131-15.558-7.617-24.324-10.644
			c-1.122-0.384-2.249-0.769-3.381-1.155l-1.652-0.557l-1.679-0.539c-2.287-0.698-4.592-1.401-6.909-2.109
			c-4.7-1.419-9.457-2.856-14.252-4.304c-9.606-2.977-19.384-6.058-29.14-9.226c-19.517-6.302-38.964-13.065-56.584-21.042
			c-8.808-3.977-17.178-8.205-24.812-12.795c-7.612-4.615-14.515-9.578-20.175-15.039c-5.656-5.425-10.024-11.49-12.159-17.66
			c-1.076-3.071-1.561-6.121-1.611-8.928c-0.03-2.814,0.389-5.371,0.996-7.591c1.219-4.459,3.08-7.572,4.34-9.631
			c0.654-1.026,1.183-1.803,1.546-2.296c0.361-0.502,0.547-0.762,0.547-0.762L161.956,99.562z"/>
	</g>
	<g>
		<path fill="#00A9B9" d="M155.491,112.634c0,0-0.067,0.29-0.196,0.85c-0.14,0.562-0.305,1.393-0.492,2.465
			c-0.365,2.156-0.766,5.346-0.521,9.274c0.264,3.919,1.253,8.558,3.595,13.305c2.271,4.775,5.883,9.612,10.515,14.291
			c4.683,4.641,10.328,9.198,16.777,13.453c6.413,4.306,13.556,8.384,21.109,12.381c7.565,3.977,15.526,7.926,23.803,11.632
			c8.252,3.753,16.779,7.347,25.447,10.659c8.648,3.364,17.438,6.429,26.078,9.596c8.662,3.155,17.1,6.45,25.375,10.202
			c2.074,0.951,4.14,1.932,6.266,3.032l1.678,0.897l1.411,0.785c0.9,0.49,1.958,1.109,2.967,1.694
			c3.979,2.321,7.624,4.836,11.104,7.473c6.891,5.329,12.765,11.29,17.239,17.494c4.505,6.183,7.62,12.541,9.487,18.376
			c1.896,5.836,2.629,11.101,2.816,15.375c0.145,4.291-0.102,7.6-0.415,9.833c-0.134,1.116-0.295,1.965-0.391,2.535
			c-0.1,0.568-0.151,0.862-0.151,0.862s-0.211-1.169-0.605-3.361c-0.448-2.169-1.112-5.333-2.414-9.146
			c-1.248-3.817-3.158-8.272-5.953-12.902c-2.769-4.644-6.551-9.391-11.27-13.885c-4.739-4.479-10.431-8.708-16.948-12.407
			c-3.228-1.873-6.739-3.592-10.285-5.193c-0.877-0.386-1.707-0.763-2.744-1.189l-1.488-0.625l-1.264-0.461
			c-1.83-0.661-3.813-1.332-5.839-2.003c-8.139-2.694-16.843-5.582-25.502-8.968c-8.69-3.35-17.451-7.057-26.202-10.84
			c-8.731-3.831-17.46-7.74-25.939-11.918c-8.456-4.219-16.704-8.628-24.403-13.482c-7.707-4.833-14.873-10.085-21.286-15.622
			c-3.192-2.79-6.183-5.66-8.943-8.595c-1.377-1.47-2.708-2.941-3.954-4.45c-1.237-1.516-2.41-3.043-3.51-4.58
			c-4.43-6.125-7.533-12.567-9.099-18.606c-1.542-6.061-1.524-11.578-0.752-15.853c0.727-4.301,2.052-7.412,3.001-9.449
			c0.501-1.021,0.899-1.784,1.187-2.278c0.281-0.502,0.426-0.761,0.426-0.761L155.491,112.634z"/>
	</g>
	<g>
		<path fill="#3A1F8F" d="M171.608,82.624c0,0-0.194,0.3-0.569,0.88c-0.386,0.587-0.898,1.431-1.515,2.596
			c-0.626,1.155-1.305,2.63-1.916,4.419c-0.595,1.789-1.137,3.904-1.268,6.307c-0.152,2.396,0.074,5.071,0.89,7.835
			c0.799,2.766,2.161,5.62,4.083,8.372c3.831,5.529,9.705,10.667,16.802,15.12c7.109,4.459,15.448,8.32,24.584,11.372
			c4.572,1.513,9.334,2.865,14.259,3.894c4.932,1.024,10.105,1.82,15.372,2.593c10.601,1.458,21.554,2.964,32.685,4.494
			c11.156,1.571,22.491,3.321,33.801,5.37c11.312,2.04,22.592,4.407,33.636,7.198c11.046,2.769,21.816,6.16,31.961,10.356
			c5.059,2.132,9.981,4.409,14.646,6.989c2.339,1.272,4.626,2.6,6.844,3.986c2.202,1.417,4.36,2.848,6.424,4.372l0.776,0.563
			c0.343,0.244,0.514,0.387,0.778,0.584c0.484,0.369,0.967,0.737,1.447,1.104c0.987,0.787,2.016,1.573,2.952,2.364
			c1.913,1.566,3.749,3.175,5.495,4.82c3.469,3.318,6.652,6.706,9.454,10.178c5.624,6.927,9.744,14.102,12.481,20.783
			c1.369,3.345,2.417,6.556,3.219,9.559c0.786,3.01,1.274,5.82,1.636,8.354c0.68,5.082,0.706,9.091,0.597,11.802
			c-0.031,1.356-0.13,2.393-0.175,3.09c-0.05,0.696-0.075,1.056-0.075,1.056c-0.02,0.276-0.26,0.483-0.535,0.464
			c-0.246-0.018-0.438-0.209-0.463-0.445l-0.002-0.019c0,0-0.038-0.354-0.112-1.04c-0.079-0.685-0.164-1.701-0.372-3.016
			c-0.375-2.627-1.003-6.468-2.329-11.176c-0.667-2.351-1.483-4.924-2.595-7.63c-1.069-2.718-2.384-5.587-4-8.526
			c-1.629-2.933-3.487-5.974-5.691-9.006c-2.195-3.039-4.76-6.038-7.549-9.05c-2.798-3.007-5.953-5.918-9.365-8.75
			c-1.729-1.394-3.465-2.832-5.318-4.186c-0.92-0.704-1.835-1.33-2.771-2.009c-0.498-0.343-0.998-0.687-1.5-1.032
			c-0.231-0.156-0.546-0.383-0.71-0.481l-0.735-0.48c-3.918-2.57-8.143-4.951-12.562-7.231c-4.436-2.248-9.083-4.377-13.892-6.386
			c-9.626-4.015-19.891-7.595-30.497-10.834c-10.609-3.24-21.606-5.947-32.681-8.383c-11.084-2.41-22.261-4.492-33.305-6.421
			c-11.045-1.935-21.958-3.678-32.542-5.56c-5.293-0.956-10.501-1.926-15.62-3.165c-5.118-1.268-10.032-2.794-14.695-4.589
			c-9.328-3.574-17.764-7.932-24.96-12.892c-7.178-4.954-13.134-10.604-16.989-16.712c-1.932-3.04-3.281-6.201-4.021-9.254
			c-0.755-3.053-0.838-5.988-0.547-8.558c0.274-2.583,0.966-4.801,1.688-6.651c0.738-1.849,1.522-3.345,2.23-4.508
			c0.694-1.167,1.296-2.05,1.698-2.598c0.404-0.561,0.613-0.851,0.613-0.851c0.161-0.224,0.474-0.275,0.698-0.114
			C171.697,82.102,171.751,82.401,171.608,82.624z"/>
	</g>
	<g>
		<path fill="#382672" d="M175.281,73.103c0,0-0.176,0.349-0.516,1.024c-0.324,0.672-0.801,1.664-1.322,3.012
			c-1.016,2.663-2.375,6.791-2.116,12.104c0.146,2.638,0.741,5.539,2.011,8.451c1.26,2.914,3.173,5.825,5.671,8.541
			c5.003,5.453,12.256,10.065,20.747,13.574c2.125,0.882,4.331,1.695,6.607,2.443c1.128,0.364,2.317,0.752,3.443,1.051
			c1.198,0.323,2.406,0.649,3.625,0.978c1.222,0.353,2.44,0.604,3.67,0.888c1.23,0.278,2.471,0.558,3.721,0.839
			c2.544,0.48,5.102,1.042,7.735,1.475c10.499,1.858,21.692,3.259,33.29,4.654c11.604,1.381,23.632,2.647,35.876,4.163
			c6.124,0.784,12.302,1.612,18.521,2.68c6.139,1.02,12.302,2.044,18.466,3.068c12.352,2.123,24.724,4.435,36.824,7.321
			c12.105,2.841,24.006,6.151,35.136,10.748c11.123,4.549,21.493,10.43,30.172,17.753c1.011,0.818,2.098,1.791,3.162,2.741
			c1.055,0.952,2.032,1.897,3.008,2.867c1.908,1.967,3.748,3.939,5.418,5.999c3.389,4.073,6.269,8.322,8.68,12.582
			c4.793,8.551,7.667,17.124,9.145,24.84c1.531,7.723,1.706,14.583,1.433,20.145c-0.323,5.572-1.051,9.877-1.69,12.769
			c-0.294,1.45-0.588,2.547-0.771,3.287c-0.185,0.739-0.28,1.12-0.28,1.12c-0.067,0.269-0.339,0.432-0.607,0.364
			c-0.243-0.061-0.4-0.291-0.377-0.533l0.002-0.017c0,0,0.037-0.388,0.108-1.139c0.07-0.75,0.194-1.859,0.268-3.313
			c0.167-2.899,0.357-7.157-0.012-12.516c-0.34-5.351-1.283-11.807-3.356-18.882c-2.128-7.043-5.319-14.761-10.313-22.206
			c-4.864-7.51-11.48-14.711-19.576-20.892c-8.109-6.099-17.925-10.946-28.404-15.35c-10.506-4.368-21.739-8.33-33.404-11.731
			c-11.677-3.363-23.762-6.181-35.938-8.737c-6.112-1.261-12.225-2.522-18.313-3.778c-6.012-1.196-12.094-2.177-18.139-3.113
			c-12.112-1.824-24.109-3.408-35.715-5.101c-11.607-1.69-22.82-3.554-33.395-5.771c-2.646-0.528-5.239-1.188-7.801-1.763
			c-1.282-0.335-2.555-0.667-3.817-0.997c-1.259-0.336-2.526-0.647-3.718-1.035c-1.207-0.37-2.404-0.736-3.59-1.1
			c-1.26-0.383-2.397-0.794-3.574-1.215c-2.327-0.846-4.582-1.757-6.753-2.739c-8.673-3.908-16.105-8.936-21.239-14.888
			c-2.566-2.961-4.515-6.153-5.75-9.335c-1.251-3.179-1.776-6.32-1.828-9.134c-0.065-5.672,1.52-9.897,2.663-12.605
			c0.584-1.363,1.118-2.377,1.475-3.055c0.365-0.663,0.553-1.004,0.553-1.004c0.133-0.242,0.437-0.331,0.679-0.197
			C175.312,72.57,175.401,72.864,175.281,73.103z"/>
	</g>
	<g>
		<path fill="#382672" d="M464.956,275.045c0,0,0.159,0.287,0.407,0.791c0.131,0.251,0.277,0.557,0.438,0.908
			c0.158,0.351,0.356,0.746,0.537,1.179c0.371,0.86,0.786,1.89,1.258,2.92c0.454,1.042,0.868,2.143,1.25,3.233
			c0.189,0.538,0.507,1.115,0.816,1.657c0.31,0.548,0.582,1.089,0.647,1.627c0.073,0.538-0.044,1.072-0.227,1.586
			c-0.19,0.522-0.435,1.028-0.74,1.494c-0.292,0.467-0.635,0.898-1.001,1.283c-0.189,0.192-0.366,0.372-0.529,0.538
			c-0.194,0.168-0.372,0.322-0.532,0.461c-0.336,0.278-0.637,0.499-0.872,0.65s-0.36,0.231-0.36,0.231l-0.998,0.061
			c0,0-0.136-0.064-0.391-0.186c-0.255-0.12-0.585-0.299-0.957-0.528c-0.179-0.115-0.377-0.242-0.593-0.38
			c-0.186-0.14-0.387-0.291-0.601-0.452c-0.418-0.322-0.819-0.688-1.174-1.093c-0.368-0.403-0.68-0.841-0.943-1.315
			c-0.261-0.483-0.46-1-0.472-1.55c-0.02-0.549,0.165-1.132,0.386-1.726c0.227-0.601,0.437-1.183,0.56-1.806
			c0.237-1.231,0.507-2.453,0.825-3.588c0.173-0.566,0.308-1.119,0.507-1.617c0.186-0.504,0.36-0.981,0.522-1.421
			c0.158-0.44,0.337-0.844,0.478-1.202c0.143-0.357,0.273-0.669,0.391-0.927c0.224-0.514,0.368-0.809,0.368-0.809L464.956,275.045z"
			/>
	</g>
	<g>
		<path fill="#231F73" d="M442.004,270.648c0,0,0.168,0.229,0.434,0.63c0.139,0.201,0.295,0.445,0.467,0.726
			c0.17,0.28,0.382,0.596,0.576,0.942c0.396,0.692,0.865,1.5,1.316,2.369s0.862,1.801,1.244,2.734
			c0.192,0.467,0.489,0.927,0.791,1.378c0.3,0.452,0.562,0.898,0.616,1.346c0.063,0.445-0.063,0.891-0.256,1.316
			c-0.198,0.428-0.449,0.836-0.761,1.219c-0.299,0.382-0.647,0.737-1.02,1.057c-0.191,0.16-0.37,0.31-0.536,0.448
			c-0.195,0.141-0.375,0.27-0.537,0.387c-0.339,0.234-0.643,0.421-0.88,0.551c-0.236,0.13-0.362,0.198-0.362,0.198l-0.998,0.072
			c0,0-0.135-0.051-0.388-0.146s-0.579-0.236-0.948-0.42c-0.178-0.093-0.374-0.195-0.587-0.307
			c-0.184-0.113-0.383-0.236-0.595-0.368c-0.413-0.263-0.809-0.565-1.159-0.9c-0.362-0.335-0.669-0.703-0.926-1.098
			c-0.252-0.396-0.44-0.817-0.44-1.268c-0.01-0.45,0.187-0.93,0.418-1.42c0.235-0.489,0.464-0.986,0.588-1.476
			c0.245-0.979,0.52-1.96,0.843-2.884s0.672-1.79,0.966-2.532c0.144-0.37,0.309-0.713,0.437-1.015
			c0.131-0.303,0.251-0.566,0.359-0.784c0.206-0.436,0.34-0.685,0.34-0.685L442.004,270.648z"/>
	</g>
	<g>
		<path fill="#234298" d="M416.869,281.063c0,0,0.154,0.291,0.394,0.8c0.246,0.514,0.574,1.225,0.96,2.068
			c0.371,0.854,0.815,1.847,1.249,2.913c0.434,1.069,0.83,2.211,1.195,3.37c0.186,0.577,0.473,1.155,0.765,1.73
			c0.292,0.569,0.537,1.153,0.58,1.717c0.045,0.576-0.098,1.135-0.315,1.68c-0.227,0.549-0.5,1.058-0.854,1.556
			c-0.329,0.471-0.735,0.953-1.155,1.336c-0.227,0.205-0.438,0.396-0.634,0.573c-0.226,0.184-0.425,0.287-0.644,0.464
			c-0.205,0.165-0.433,0.279-0.614,0.367c-0.16,0.062-0.383,0.215-0.564,0.264c-0.351,0.112-0.501,0.092-0.501,0.092l-0.721-0.693
			c0,0-0.079-0.147-0.296-0.273c-0.225-0.04-0.495-0.324-0.813-0.488c-0.147-0.068-0.338-0.25-0.516-0.37
			c-0.162-0.14-0.327-0.238-0.524-0.416c-0.375-0.325-0.723-0.643-1.045-1.048c-0.325-0.376-0.609-0.814-0.84-1.268
			c-0.226-0.457-0.397-0.955-0.379-1.473c0.013-1.048,0.849-2.222,1.079-3.397c0.263-1.171,0.553-2.359,0.894-3.475
			c0.343-1.118,0.716-2.165,1.036-3.06c0.157-0.45,0.339-0.865,0.48-1.228c0.142-0.366,0.28-0.673,0.402-0.93
			c0.232-0.512,0.382-0.804,0.382-0.804L416.869,281.063z"/>
	</g>
	<g>
		<path fill="#2351A2" d="M387.906,297.429c0,0,0.169,0.264,0.435,0.728c0.139,0.231,0.295,0.513,0.467,0.836
			c0.17,0.324,0.382,0.688,0.576,1.087c0.396,0.798,0.865,1.729,1.317,2.729c0.451,1,0.863,2.071,1.245,3.145
			c0.192,0.537,0.489,1.067,0.791,1.588c0.3,0.521,0.562,1.037,0.616,1.548c0.063,0.51-0.063,1.015-0.256,1.499
			c-0.198,0.483-0.449,0.945-0.762,1.376c-0.299,0.43-0.647,0.829-1.02,1.187c-0.191,0.179-0.37,0.347-0.536,0.502
			c-0.196,0.156-0.376,0.301-0.538,0.431c-0.339,0.262-0.643,0.469-0.88,0.612s-0.363,0.22-0.363,0.22L388,314.978
			c0,0-0.135-0.061-0.388-0.173c-0.254-0.113-0.58-0.281-0.949-0.498c-0.178-0.108-0.374-0.229-0.588-0.36
			c-0.184-0.134-0.382-0.277-0.595-0.432c-0.414-0.309-0.81-0.661-1.159-1.05c-0.363-0.389-0.67-0.815-0.927-1.271
			c-0.252-0.455-0.44-0.94-0.441-1.455c-0.009-0.514,0.188-1.058,0.42-1.611c0.234-0.555,0.463-1.118,0.588-1.674
			c0.244-1.113,0.52-2.228,0.843-3.276c0.324-1.049,0.673-2.03,0.967-2.872c0.144-0.42,0.309-0.808,0.438-1.149
			c0.13-0.343,0.25-0.642,0.359-0.889c0.205-0.493,0.34-0.775,0.34-0.775L387.906,297.429z"/>
	</g>
	<g>
		<path fill="#2374B9" d="M357.304,310.55c0,0,0.169,0.334,0.435,0.92c0.14,0.293,0.296,0.649,0.468,1.058
			c0.17,0.409,0.382,0.869,0.577,1.373c0.396,1.007,0.865,2.182,1.318,3.443c0.451,1.262,0.863,2.61,1.245,3.961
			c0.192,0.675,0.489,1.345,0.792,2.004c0.3,0.659,0.563,1.31,0.617,1.948c0.063,0.639-0.063,1.266-0.256,1.864
			c-0.199,0.599-0.45,1.167-0.763,1.696c-0.299,0.528-0.647,1.017-1.021,1.453c-0.191,0.218-0.371,0.422-0.537,0.611
			c-0.195,0.19-0.375,0.365-0.538,0.522c-0.339,0.317-0.643,0.567-0.88,0.74c-0.237,0.172-0.364,0.264-0.364,0.264l-0.998,0.051
			c0,0-0.136-0.079-0.389-0.227c-0.253-0.148-0.58-0.367-0.95-0.648c-0.177-0.141-0.373-0.297-0.587-0.467
			c-0.185-0.172-0.383-0.356-0.596-0.555c-0.414-0.396-0.81-0.848-1.16-1.344c-0.363-0.495-0.671-1.036-0.928-1.612
			c-0.252-0.575-0.44-1.187-0.441-1.829c-0.009-0.641,0.188-1.314,0.42-2c0.235-0.686,0.464-1.382,0.588-2.073
			c0.245-1.382,0.521-2.765,0.844-4.065c0.324-1.3,0.674-2.516,0.968-3.558c0.144-0.521,0.309-1,0.438-1.424
			c0.13-0.424,0.25-0.793,0.359-1.099c0.206-0.609,0.341-0.958,0.341-0.958L357.304,310.55z"/>
	</g>
</g>
</svg>
